# xmcd
#
# Track frame offsets:
#	150
#	26834
#	48075
#	76241
#	91921
#	108799
#	127030
#	152950
#	199134
#	218357
#
# Disc length: 3176 seconds
#
# Revision: 670221612
# Processed by: cddbd v1.5.2PL0 Copyright (c) Steve Scherf et al.
# Submitted via: EZCDAudioConverter 8.0.2.1
#
DISCID=780c660a
DTITLE=Various Artist - st. Lam Phương. Top Hits 45 . Mùa Thu Yêu Đương
DYEAR=2011
DGENRE=Contemporary Pop
TTITLE0=Mai Tiến Dũng, Tóc Tiên - LK Mùa Thu Yêu Đương, Bé Yêu
TTITLE1=Kỳ Phương Uyên - Hạnh phúc trong tầm tay
TTITLE2=Quỳnh Vi, Như Loan - Tình đau, Yêu nhau bốn mùa
TTITLE3=Lưu Bích - Một đời tan vỡ
TTITLE4=Trình Lâm - Kiếp phiêu bồng
TTITLE5=Thanh Hà - Mưa lệ
TTITLE6=Don Hồ - Thành phố buồn
TTITLE7=Minh Tuyết, Bằng Kiều - LK Em là tất cả, Duyên kiếp, Cỏ úa
TTITLE8=Lương Tùng Quang - Tình đẹp như mơ
TTITLE9=Hợp Ca Thúy Nga Paris - Đoàn người lữ thứ
EXTD=
EXTT0=
EXTT1=
EXTT2=
EXTT3=
EXTT4=
EXTT5=
EXTT6=
EXTT7=
EXTT8=
EXTT9=
PLAYORDER=
